<svg data-v-423bf9ae="" xmlns="http://www.w3.org/2000/svg" viewBox="0 0 558 90" class="iconLeftSlogan"><!----><!----><!----><g data-v-423bf9ae="" id="7c74cc6c-8a11-4c59-b4a7-6b93eb477919" fill="white" transform="matrix(5.758052349090576,0,0,5.758052349090576,83.11017608642578,-18.13740348815918)"><path d="M1.46 13.55L2.04 13.55L2.04 9.60C2.17 7.91 3.15 6.85 4.76 6.85L4.76 6.24C3.46 6.27 2.51 6.92 2.04 8.09L2.04 6.26L1.46 6.26ZM5.57 9.91C5.57 12.05 7.07 13.57 9.13 13.57C10.29 13.57 11.28 13.13 11.96 12.40L11.62 12.03C11.03 12.67 10.15 13.03 9.16 13.03C7.46 13.03 6.23 11.84 6.15 10.07L12.52 10.07C12.56 7.81 11.27 6.24 9.13 6.24C7.07 6.24 5.57 7.77 5.57 9.91ZM6.16 9.55C6.30 7.90 7.49 6.78 9.13 6.78C10.79 6.78 11.87 7.90 11.98 9.55ZM14.41 4.16C14.41 4.45 14.63 4.68 14.90 4.68C15.16 4.68 15.39 4.45 15.39 4.16C15.39 3.88 15.16 3.65 14.90 3.65C14.63 3.65 14.41 3.88 14.41 4.16ZM14.60 13.55L15.18 13.55L15.18 6.26L14.60 6.26ZM18.10 13.55L18.69 13.55L18.69 9.60C18.82 7.92 19.85 6.87 21.53 6.83C23.03 6.83 23.91 7.71 23.91 9.21L23.91 13.55L24.50 13.55L24.50 9.10C24.50 7.32 23.45 6.24 21.67 6.24C20.22 6.27 19.18 6.92 18.69 8.12L18.69 6.26L18.10 6.26ZM26.40 6.94L27.33 6.94L27.33 13.55L27.90 13.55L27.90 6.94L30.16 6.94L30.16 6.44L27.90 6.44L27.90 5.45C27.90 4.41 28.60 3.70 29.50 3.71C29.92 3.71 30.35 3.88 30.70 4.14L30.97 3.67C30.56 3.35 30.02 3.15 29.48 3.15C28.32 3.14 27.33 4.07 27.33 5.49L27.33 6.44L26.40 6.44ZM30.67 9.90C30.67 12.05 32.20 13.57 34.27 13.57C36.36 13.57 37.87 12.05 37.87 9.90C37.87 7.77 36.36 6.24 34.27 6.24C32.20 6.24 30.67 7.77 30.67 9.90ZM31.25 9.91C31.25 8.08 32.52 6.80 34.27 6.80C36.04 6.80 37.30 8.08 37.30 9.91C37.30 11.75 36.04 13.02 34.27 13.02C32.52 13.02 31.25 11.75 31.25 9.91ZM40.00 13.55L40.59 13.55L40.59 9.60C40.71 7.91 41.69 6.85 43.30 6.85L43.30 6.24C42 6.27 41.05 6.92 40.59 8.09L40.59 6.26L40.00 6.26ZM44.11 9.91C44.11 12.05 45.63 13.57 47.68 13.57C48.82 13.57 49.78 13.13 50.43 12.38L50.08 12.00C49.52 12.66 48.68 13.02 47.70 13.02C45.95 13.02 44.69 11.75 44.69 9.90C44.69 8.08 45.95 6.80 47.70 6.80C48.61 6.80 49.36 7.14 49.95 7.69L50.29 7.27C49.64 6.62 48.73 6.24 47.68 6.24C45.63 6.24 44.11 7.77 44.11 9.91ZM51.94 9.91C51.94 12.05 53.44 13.57 55.50 13.57C56.66 13.57 57.65 13.13 58.32 12.40L57.99 12.03C57.40 12.67 56.52 13.03 55.52 13.03C53.83 13.03 52.60 11.84 52.51 10.07L58.88 10.07C58.93 7.81 57.64 6.24 55.50 6.24C53.44 6.24 51.94 7.77 51.94 9.91ZM52.53 9.55C52.67 7.90 53.86 6.78 55.50 6.78C57.16 6.78 58.24 7.90 58.35 9.55ZM61.04 13.55L61.63 13.55L61.63 11.65C62.17 12.82 63.29 13.57 64.72 13.57C66.78 13.57 68.24 12.04 68.24 9.91C68.24 7.77 66.77 6.24 64.72 6.24C63.29 6.24 62.17 6.99 61.63 8.18L61.63 3.16L61.04 3.16ZM61.63 9.91C61.63 8.11 62.89 6.79 64.64 6.79C66.40 6.79 67.66 8.11 67.66 9.91C67.66 11.72 66.40 13.02 64.64 13.02C62.89 13.02 61.63 11.72 61.63 9.91ZM69.58 9.90C69.58 12.05 71.11 13.57 73.18 13.57C75.26 13.57 76.78 12.05 76.78 9.90C76.78 7.77 75.26 6.24 73.18 6.24C71.11 6.24 69.58 7.77 69.58 9.90ZM70.15 9.91C70.15 8.08 71.43 6.80 73.18 6.80C74.94 6.80 76.20 8.08 76.20 9.91C76.20 11.75 74.94 13.02 73.18 13.02C71.43 13.02 70.15 11.75 70.15 9.91ZM78.09 6.94L79.16 6.94L79.16 11.54C79.16 12.91 79.77 13.58 80.81 13.57C81.35 13.57 81.87 13.37 82.33 13.05L82.11 12.57C81.73 12.84 81.30 12.99 80.88 12.99C80.12 13.01 79.72 12.50 79.72 11.47L79.72 6.94L82.19 6.94L82.19 6.44L79.72 6.44L79.72 4.63L79.16 4.63L79.16 6.44L78.09 6.44Z"></path></g><!----><g data-v-423bf9ae="" id="0f2fdfef-2131-4a22-836f-a387c0d28fc5" transform="matrix(1.785395622253418,0,0,1.785395622253418,-10.999701499938965,1.005496859550476)" stroke="none" fill="white"><circle cx="23.588" cy="38.103" r="3.601"></circle><path d="M46.73 12.567V-.007l-9.669 8.956s-.649.558-1.813 1.108a5.103 5.103 0 0 1-1.384.388l-18.862.055c-1.388.013-2.069 1.051-2.389 1.993l10.071-.008c.279 0 .491.298.492.577a.508.508 0 0 1-.505.509l-10.264.009c-.008 0-.015-.005-.025-.007l-3.768.007a1.944 1.944 0 0 0-1.939 1.954c0 1.07.874 1.937 1.948 1.936l1.654-.001v21.448l-2.833 1.652a1.679 1.679 0 0 0 1.69 2.898l5.152-3.004 2.1 2.073c-.084.083-.172.164-.238.249-2.782 3.354-3.906 7.617-3.906 7.617h10.733s-.003-1.571-.37-3.42l5.729 1.482a1.676 1.676 0 0 0 1.816-.693l4.438-6.657a1.677 1.677 0 0 0-.465-2.326 1.673 1.673 0 0 0-2.307.445V27.989L46.73 12.567zM15.729 37.17a1.677 1.677 0 0 0-2.024-.255l-2.496 1.456V17.467l7.042-.003 2.71-1.666a.506.506 0 0 1 .528.864l-1.299.798h.014l-6.199 3.793a1.942 1.942 0 1 0 2.065 3.293l.777-.476v14.204l-1.118-1.104zm12.291 7.747l-6.005-1.554-.016-.002-4.219-4.168V23.498l5.38-3.301 7.304-.015c.465.034 1.244.213 1.303.98.065.84-.621 1.437-.621 1.437l.022-.004-2.953 3.004c-.756.767-1.153 2.44-.223 3.284a2.208 2.208 0 0 0 1.611.537c.456-.032.913-.174 1.281-.491v11.503h.125l-2.989 4.485z"></path></g><!----><g data-v-423bf9ae="" id="997acdbb-ad40-43a7-bada-c6fa0aa6c321" fill="white" transform="matrix(1.7117263078689575,0,0,1.7117263078689575,89.53131103515625,53.90625762939453)"><path d="M6.19 9.52L6.19 9.52L6.19 9.52Q6.33 9.52 6.52 9.57L6.52 9.57L6.52 9.57Q6.71 9.62 6.86 9.70L6.86 9.70L6.86 9.70Q7.01 9.77 7.12 9.86L7.12 9.86L7.12 9.86Q7.22 9.94 7.22 10.01L7.22 10.01L7.22 10.01Q6.94 10.60 6.71 11.19L6.71 11.19L6.71 11.19Q6.47 11.79 6.30 12.33L6.30 12.33L6.30 12.33Q6.13 12.88 6.04 13.36L6.04 13.36L6.04 13.36Q5.95 13.83 5.95 14.18L5.95 14.18L5.95 14.18Q5.95 14.57 6.03 14.83L6.03 14.83L6.03 14.83Q6.12 15.09 6.31 15.20L6.31 15.20L6.31 15.20Q6.15 15.32 5.88 15.39L5.88 15.39L5.88 15.39Q5.61 15.46 5.40 15.46L5.40 15.46L5.40 15.46Q4.65 15.46 4.65 14.42L4.65 14.42L4.65 14.42Q4.65 13.62 5.18 12.24L5.18 12.24L5.18 12.24Q4.90 12.88 4.54 13.45L4.54 13.45L4.54 13.45Q4.17 14.01 3.79 14.45L3.79 14.45L3.79 14.45Q3.42 14.88 3.03 15.15L3.03 15.15L3.03 15.15Q2.65 15.43 2.32 15.48L2.32 15.48L2.32 15.48Q1.81 15.46 1.48 14.99L1.48 14.99L1.48 14.99Q1.16 14.52 1.16 13.79L1.16 13.79L1.16 13.79Q1.16 13.01 1.50 12.14L1.50 12.14L1.50 12.14Q1.83 11.27 2.36 10.53L2.36 10.53L2.36 10.53Q2.88 9.79 3.50 9.29L3.50 9.29L3.50 9.29Q4.12 8.79 4.69 8.76L4.69 8.76L4.69 8.76Q4.83 8.81 5.00 8.93L5.00 8.93L5.00 8.93Q5.18 9.06 5.34 9.23L5.34 9.23L5.34 9.23Q5.50 9.39 5.61 9.57L5.61 9.57L5.61 9.57Q5.73 9.74 5.74 9.87L5.74 9.87L5.74 9.87Q5.18 9.95 4.58 10.42L4.58 10.42L4.58 10.42Q3.99 10.88 3.51 11.53L3.51 11.53L3.51 11.53Q3.02 12.18 2.72 12.92L2.72 12.92L2.72 12.92Q2.41 13.66 2.41 14.31L2.41 14.31L2.41 14.31Q2.41 14.57 2.60 14.64L2.60 14.64L2.60 14.64Q3.01 14.56 3.54 13.95L3.54 13.95L3.54 13.95Q4.07 13.34 4.83 12.07L4.83 12.07L4.83 12.07Q4.97 11.82 5.15 11.51L5.15 11.51L5.15 11.51Q5.32 11.20 5.50 10.86L5.50 10.86L5.50 10.86Q5.68 10.53 5.86 10.18L5.86 10.18L5.86 10.18Q6.03 9.84 6.19 9.52ZM18.69 14.87L18.69 14.87L18.69 14.87Q18.42 14.64 18.33 14.31L18.33 14.31L18.33 14.31Q18.24 13.97 18.24 13.73L18.24 13.73L18.24 13.73Q18.24 13.44 18.31 13.23L18.31 13.23L18.31 13.23Q18.26 13.23 18.06 13.45L18.06 13.45L18.06 13.45Q17.86 13.68 17.63 13.99L17.63 13.99L17.63 13.99Q17.40 14.29 17.18 14.59L17.18 14.59L17.18 14.59Q16.95 14.88 16.84 15.02L16.84 15.02L16.84 15.02Q16.66 15.22 16.50 15.33L16.50 15.33L16.50 15.33Q16.34 15.44 16.24 15.46L16.24 15.46L16.24 15.46Q16.02 15.44 15.77 15.37L15.77 15.37L15.77 15.37Q15.53 15.29 15.31 15.15L15.31 15.15L15.31 15.15Q15.09 15.01 14.93 14.81L14.93 14.81L14.93 14.81Q14.77 14.62 14.71 14.36L14.71 14.36L14.71 14.36Q14.71 13.97 14.74 13.72L14.74 13.72L14.74 13.72Q14.76 13.47 14.83 13.17L14.83 13.17L14.83 13.17Q14.95 12.64 15.20 11.97L15.20 11.97L15.20 11.97Q15.44 11.30 15.76 10.65L15.76 10.65L15.76 10.65Q16.09 10.00 16.48 9.43L16.48 9.43L16.48 9.43Q16.88 8.86 17.33 8.54L17.33 8.54L17.33 8.54Q17.46 8.54 17.63 8.56L17.63 8.56L17.63 8.56Q17.79 8.58 17.97 8.64L17.97 8.64L17.97 8.64Q18.14 8.69 18.30 8.77L18.30 8.77L18.30 8.77Q18.47 8.85 18.58 8.97L18.58 8.97L18.58 8.97Q18.45 9.11 17.94 9.91L17.94 9.91L17.94 9.91Q17.43 10.71 16.80 12.21L16.80 12.21L16.80 12.21Q16.73 12.36 16.63 12.66L16.63 12.66L16.63 12.66Q16.53 12.95 16.44 13.27L16.44 13.27L16.44 13.27Q16.34 13.59 16.28 13.90L16.28 13.90L16.28 13.90Q16.21 14.21 16.21 14.39L16.21 14.39L16.21 14.39Q16.21 14.50 16.25 14.56L16.25 14.56L16.25 14.56Q16.28 14.62 16.31 14.64L16.31 14.64L16.31 14.64Q16.52 14.56 16.84 14.18L16.84 14.18L16.84 14.18Q17.16 13.80 17.74 13.02L17.74 13.02L17.74 13.02Q17.88 12.82 18.07 12.57L18.07 12.57L18.07 12.57Q18.26 12.32 18.45 12.03L18.45 12.03L18.45 12.03Q18.65 11.75 18.82 11.44L18.82 11.44L18.82 11.44Q19.00 11.13 19.11 10.82L19.11 10.82L19.11 10.82Q19.17 10.65 19.26 10.42L19.26 10.42L19.26 10.42Q19.35 10.19 19.48 9.94L19.48 9.94L19.48 9.94Q19.61 9.69 19.79 9.43L19.79 9.43L19.79 9.43Q19.96 9.17 20.20 8.95L20.20 8.95L20.20 8.95Q20.38 8.95 20.59 8.99L20.59 8.99L20.59 8.99Q20.80 9.03 20.99 9.09L20.99 9.09L20.99 9.09Q21.18 9.16 21.32 9.23L21.32 9.23L21.32 9.23Q21.46 9.31 21.53 9.39L21.53 9.39L21.53 9.39Q21.28 10.01 20.97 10.61L20.97 10.61L20.97 10.61Q20.66 11.21 20.40 11.79L20.40 11.79L20.40 11.79Q20.13 12.38 19.95 12.95L19.95 12.95L19.95 12.95Q19.77 13.52 19.77 14.07L19.77 14.07L19.77 14.07Q19.77 14.36 19.82 14.58L19.82 14.58L19.82 14.58Q19.87 14.80 19.92 14.95L19.92 14.95L19.92 14.95Q19.98 15.09 20.03 15.19L20.03 15.19L20.03 15.19Q20.08 15.29 20.08 15.36L20.08 15.36L20.08 15.36Q20.08 15.37 20.05 15.40L20.05 15.40L20.05 15.40Q20.03 15.41 20.02 15.41L20.02 15.41L20.02 15.41Q19.92 15.41 19.77 15.37L19.77 15.37L19.77 15.37Q19.61 15.33 19.43 15.25L19.43 15.25L19.43 15.25Q19.24 15.18 19.05 15.08L19.05 15.08L19.05 15.08Q18.86 14.98 18.69 14.87ZM30.37 9.81L29.57 9.81L29.57 9.81Q29.50 9.73 29.44 9.46L29.44 9.46L29.44 9.46Q29.39 9.18 29.39 8.99L29.39 8.99L29.39 8.99Q29.75 9.02 30.09 9.04L30.09 9.04L30.09 9.04Q30.42 9.06 30.70 9.07L30.70 9.07L30.70 9.07Q30.91 8.65 31.16 8.24L31.16 8.24L31.16 8.24Q31.40 7.83 31.63 7.48L31.63 7.48L31.63 7.48Q31.86 7.14 32.07 6.90L32.07 6.90L32.07 6.90Q32.27 6.66 32.38 6.59L32.38 6.59L32.38 6.59Q32.52 6.59 32.74 6.64L32.74 6.64L32.74 6.64Q32.96 6.69 33.18 6.77L33.18 6.77L33.18 6.77Q33.40 6.85 33.59 6.93L33.59 6.93L33.59 6.93Q33.77 7.01 33.84 7.10L33.84 7.10L33.84 7.10Q33.42 7.63 33.12 8.09L33.12 8.09L33.12 8.09Q32.82 8.54 32.47 9.13L32.47 9.13L32.47 9.13Q32.75 9.13 33.03 9.11L33.03 9.11L33.03 9.11Q33.32 9.10 33.61 9.07L33.61 9.07L33.61 9.07Q33.68 9.14 33.73 9.25L33.73 9.25L33.73 9.25Q33.77 9.35 33.77 9.46L33.77 9.46L33.77 9.46Q33.08 9.72 32.10 9.74L32.10 9.74L32.10 9.74Q31.75 10.42 31.48 11.08L31.48 11.08L31.48 11.08Q31.21 11.75 31.02 12.36L31.02 12.36L31.02 12.36Q30.83 12.98 30.72 13.52L30.72 13.52L30.72 13.52Q30.62 14.07 30.62 14.50L30.62 14.50L30.62 14.50Q30.62 15.12 31.08 15.19L31.08 15.19L31.08 15.19Q31.50 15.13 31.88 14.98L31.88 14.98L31.88 14.98Q32.26 14.83 32.55 14.59L32.55 14.59L32.55 14.59Q32.63 14.71 32.65 14.80L32.65 14.80L32.65 14.80Q32.56 14.92 32.36 15.09L32.36 15.09L32.36 15.09Q32.16 15.26 31.92 15.42L31.92 15.42L31.92 15.42Q31.68 15.58 31.46 15.69L31.46 15.69L31.46 15.69Q31.23 15.81 31.12 15.82L31.12 15.82L31.12 15.82Q30.77 15.81 30.42 15.67L30.42 15.67L30.42 15.67Q30.07 15.53 29.79 15.32L29.79 15.32L29.79 15.32Q29.50 15.11 29.32 14.85L29.32 14.85L29.32 14.85Q29.13 14.59 29.13 14.34L29.13 14.34L29.13 14.34Q29.13 14 29.23 13.49L29.23 13.49L29.23 13.49Q29.32 12.98 29.48 12.38L29.48 12.38L29.48 12.38Q29.65 11.77 29.88 11.12L29.88 11.12L29.88 11.12Q30.10 10.46 30.37 9.81L30.37 9.81ZM42.32 15.67L42.32 15.67L42.32 15.67Q41.52 15.58 41.05 14.97L41.05 14.97L41.05 14.97Q40.57 14.35 40.57 13.40L40.57 13.40L40.57 13.40Q40.57 12.84 40.74 12.24L40.74 12.24L40.74 12.24Q40.91 11.63 41.22 11.07L41.22 11.07L41.22 11.07Q41.52 10.50 41.94 10.00L41.94 10.00L41.94 10.00Q42.36 9.49 42.85 9.13L42.85 9.13L42.85 9.13Q43.62 8.55 44.30 8.55L44.30 8.55L44.30 8.55Q44.74 8.79 45.18 9.55L45.18 9.55L45.18 9.55Q45.25 9.55 45.30 9.54L45.30 9.54L45.30 9.54Q45.36 9.53 45.43 9.53L45.43 9.53L45.43 9.53Q46.17 9.53 46.17 10.85L46.17 10.85L46.17 10.85Q46.17 11.73 45.88 12.52L45.88 12.52L45.88 12.52Q45.60 13.31 45.09 13.96L45.09 13.96L45.09 13.96Q44.58 14.60 43.87 15.04L43.87 15.04L43.87 15.04Q43.16 15.48 42.32 15.67ZM43.04 11.26L43.04 11.26L43.04 11.26Q42.80 11.58 42.59 11.96L42.59 11.96L42.59 11.96Q42.38 12.33 42.22 12.72L42.22 12.72L42.22 12.72Q42.07 13.10 41.99 13.46L41.99 13.46L41.99 13.46Q41.90 13.82 41.90 14.10L41.90 14.10L41.90 14.10Q41.90 14.43 42.01 14.74L42.01 14.74L42.01 14.74Q42.13 15.05 42.27 15.09L42.27 15.09L42.27 15.09Q42.90 14.95 43.42 14.57L43.42 14.57L43.42 14.57Q43.95 14.18 44.33 13.61L44.33 13.61L44.33 13.61Q44.72 13.03 44.93 12.31L44.93 12.31L44.93 12.31Q45.15 11.58 45.15 10.75L45.15 10.75L45.15 10.75Q45.15 10.39 45.11 10.18L45.11 10.18L45.11 10.18Q45.07 9.97 44.97 9.81L44.97 9.81L44.97 9.81Q44.35 10.00 43.87 10.40L43.87 10.40L43.87 10.40Q43.39 10.81 43.04 11.26ZM61.94 10.88L61.94 10.88L61.94 10.88Q61.71 10.89 61.39 11.16L61.39 11.16L61.39 11.16Q61.07 11.44 60.70 11.87L60.70 11.87L60.70 11.87Q60.33 12.29 59.93 12.81L59.93 12.81L59.93 12.81Q59.53 13.33 59.16 13.84L59.16 13.84L59.16 13.84Q58.79 14.35 58.46 14.80L58.46 14.80L58.46 14.80Q58.14 15.25 57.92 15.51L57.92 15.51L57.92 15.51Q57.61 15.39 57.39 15.14L57.39 15.14L57.39 15.14Q57.16 14.90 57.06 14.53L57.06 14.53L57.06 14.53Q57.13 14.10 57.26 13.63L57.26 13.63L57.26 13.63Q57.39 13.16 57.59 12.66L57.59 12.66L57.59 12.66Q57.79 12.15 58.09 11.60L58.09 11.60L58.09 11.60Q58.39 11.05 58.83 10.43L58.83 10.43L58.83 10.43Q58.62 10.44 58.25 10.73L58.25 10.73L58.25 10.73Q57.89 11.02 57.47 11.47L57.47 11.47L57.47 11.47Q57.05 11.93 56.60 12.50L56.60 12.50L56.60 12.50Q56.15 13.06 55.76 13.61L55.76 13.61L55.76 13.61Q55.24 14.34 54.90 14.88L54.90 14.88L54.90 14.88Q54.56 15.43 54.40 15.53L54.40 15.53L54.40 15.53Q54.04 15.26 53.90 14.95L53.90 14.95L53.90 14.95Q53.76 14.64 53.69 14.27L53.69 14.27L53.69 14.27Q53.70 13.93 53.79 13.43L53.79 13.43L53.79 13.43Q53.89 12.92 54.05 12.39L54.05 12.39L54.05 12.39Q54.38 11.37 54.89 10.36L54.89 10.36L54.89 10.36Q55.40 9.35 55.87 8.51L55.87 8.51L55.87 8.51Q56.27 8.60 56.58 8.78L56.58 8.78L56.58 8.78Q56.90 8.96 57.25 9.31L57.25 9.31L57.25 9.31Q57.11 9.74 56.81 10.23L56.81 10.23L56.81 10.23Q56.52 10.71 56.20 11.24L56.20 11.24L56.20 11.24Q55.87 11.77 55.61 12.33L55.61 12.33L55.61 12.33Q55.34 12.89 55.26 13.47L55.26 13.47L55.26 13.47Q55.65 12.91 56.19 12.18L56.19 12.18L56.19 12.18Q56.73 11.45 57.29 10.81L57.29 10.81L57.29 10.81Q57.86 10.16 58.42 9.72L58.42 9.72L58.42 9.72Q58.98 9.27 59.43 9.27L59.43 9.27L59.43 9.27Q59.60 9.27 59.79 9.32L59.79 9.32L59.79 9.32Q59.99 9.38 60.16 9.46L60.16 9.46L60.16 9.46Q60.33 9.55 60.44 9.63L60.44 9.63L60.44 9.63Q60.55 9.70 60.56 9.74L60.56 9.74L60.56 9.74Q60.49 10.02 60.23 10.51L60.23 10.51L60.23 10.51Q59.98 10.99 59.68 11.52L59.68 11.52L59.68 11.52Q59.39 12.05 59.14 12.55L59.14 12.55L59.14 12.55Q58.88 13.05 58.84 13.34L58.84 13.34L58.84 13.34Q59.53 12.40 60.13 11.64L60.13 11.64L60.13 11.64Q60.73 10.88 61.26 10.33L61.26 10.33L61.26 10.33Q61.80 9.79 62.25 9.49L62.25 9.49L62.25 9.49Q62.71 9.20 63.11 9.20L63.11 9.20L63.11 9.20Q63.39 9.20 63.64 9.34L63.64 9.34L63.64 9.34Q63.88 9.49 63.98 9.77L63.98 9.77L63.98 9.77Q63.85 10.19 63.57 10.78L63.57 10.78L63.57 10.78Q63.28 11.37 62.99 12.02L62.99 12.02L62.99 12.02Q62.69 12.67 62.46 13.30L62.46 13.30L62.46 13.30Q62.23 13.93 62.23 14.43L62.23 14.43L62.23 14.43Q62.23 14.73 62.31 14.82L62.31 14.82L62.31 14.82Q62.40 14.91 62.55 14.91L62.55 14.91L62.55 14.91Q62.72 14.91 62.87 14.85L62.87 14.85L62.87 14.85Q63.01 14.78 63.08 14.78L63.08 14.78L63.08 14.78Q63.17 14.84 63.18 14.92L63.18 14.92L63.18 14.92Q63.20 15.01 63.20 15.08L63.20 15.08L63.20 15.08Q62.92 15.30 62.62 15.45L62.62 15.45L62.62 15.45Q62.33 15.60 61.96 15.60L61.96 15.60L61.96 15.60Q61.63 15.60 61.41 15.48L61.41 15.48L61.41 15.48Q61.19 15.37 61.05 15.18L61.05 15.18L61.05 15.18Q60.91 14.98 60.86 14.73L60.86 14.73L60.86 14.73Q60.80 14.48 60.80 14.18L60.80 14.18L60.80 14.18Q60.80 13.71 60.93 13.24L60.93 13.24L60.93 13.24Q61.05 12.77 61.23 12.34L61.23 12.34L61.23 12.34Q61.40 11.91 61.60 11.54L61.60 11.54L61.60 11.54Q61.80 11.17 61.94 10.88ZM76.38 9.52L76.38 9.52L76.38 9.52Q76.52 9.52 76.71 9.57L76.71 9.57L76.71 9.57Q76.90 9.62 77.06 9.70L77.06 9.70L77.06 9.70Q77.21 9.77 77.31 9.86L77.31 9.86L77.31 9.86Q77.42 9.94 77.42 10.01L77.42 10.01L77.42 10.01Q77.14 10.60 76.90 11.19L76.90 11.19L76.90 11.19Q76.66 11.79 76.50 12.33L76.50 12.33L76.50 12.33Q76.33 12.88 76.24 13.36L76.24 13.36L76.24 13.36Q76.15 13.83 76.15 14.18L76.15 14.18L76.15 14.18Q76.15 14.57 76.23 14.83L76.23 14.83L76.23 14.83Q76.31 15.09 76.51 15.20L76.51 15.20L76.51 15.20Q76.34 15.32 76.08 15.39L76.08 15.39L76.08 15.39Q75.81 15.46 75.60 15.46L75.60 15.46L75.60 15.46Q74.84 15.46 74.84 14.42L74.84 14.42L74.84 14.42Q74.84 13.62 75.38 12.24L75.38 12.24L75.38 12.24Q75.10 12.88 74.73 13.45L74.73 13.45L74.73 13.45Q74.37 14.01 73.99 14.45L73.99 14.45L73.99 14.45Q73.61 14.88 73.23 15.15L73.23 15.15L73.23 15.15Q72.84 15.43 72.52 15.48L72.52 15.48L72.52 15.48Q72.00 15.46 71.68 14.99L71.68 14.99L71.68 14.99Q71.36 14.52 71.36 13.79L71.36 13.79L71.36 13.79Q71.36 13.01 71.69 12.14L71.69 12.14L71.69 12.14Q72.03 11.27 72.55 10.53L72.55 10.53L72.55 10.53Q73.08 9.79 73.70 9.29L73.70 9.29L73.70 9.29Q74.31 8.79 74.89 8.76L74.89 8.76L74.89 8.76Q75.03 8.81 75.20 8.93L75.20 8.93L75.20 8.93Q75.38 9.06 75.54 9.23L75.54 9.23L75.54 9.23Q75.70 9.39 75.81 9.57L75.81 9.57L75.81 9.57Q75.92 9.74 75.94 9.87L75.94 9.87L75.94 9.87Q75.38 9.95 74.78 10.42L74.78 10.42L74.78 10.42Q74.19 10.88 73.70 11.53L73.70 11.53L73.70 11.53Q73.22 12.18 72.91 12.92L72.91 12.92L72.91 12.92Q72.60 13.66 72.60 14.31L72.60 14.31L72.60 14.31Q72.60 14.57 72.80 14.64L72.80 14.64L72.80 14.64Q73.21 14.56 73.74 13.95L73.74 13.95L73.74 13.95Q74.27 13.34 75.03 12.07L75.03 12.07L75.03 12.07Q75.17 11.82 75.34 11.51L75.34 11.51L75.34 11.51Q75.52 11.20 75.70 10.86L75.70 10.86L75.70 10.86Q75.88 10.53 76.05 10.18L76.05 10.18L76.05 10.18Q76.23 9.84 76.38 9.52ZM86.52 9.81L85.72 9.81L85.72 9.81Q85.65 9.73 85.60 9.46L85.60 9.46L85.60 9.46Q85.54 9.18 85.54 8.99L85.54 8.99L85.54 8.99Q85.90 9.02 86.24 9.04L86.24 9.04L86.24 9.04Q86.58 9.06 86.86 9.07L86.86 9.07L86.86 9.07Q87.07 8.65 87.31 8.24L87.31 8.24L87.31 8.24Q87.56 7.83 87.79 7.48L87.79 7.48L87.79 7.48Q88.02 7.14 88.22 6.90L88.22 6.90L88.22 6.90Q88.42 6.66 88.54 6.59L88.54 6.59L88.54 6.59Q88.68 6.59 88.89 6.64L88.89 6.64L88.89 6.64Q89.11 6.69 89.33 6.77L89.33 6.77L89.33 6.77Q89.56 6.85 89.74 6.93L89.74 6.93L89.74 6.93Q89.92 7.01 89.99 7.10L89.99 7.10L89.99 7.10Q89.57 7.63 89.27 8.09L89.27 8.09L89.27 8.09Q88.97 8.54 88.62 9.13L88.62 9.13L88.62 9.13Q88.90 9.13 89.19 9.11L89.19 9.11L89.19 9.11Q89.47 9.10 89.77 9.07L89.77 9.07L89.77 9.07Q89.84 9.14 89.88 9.25L89.88 9.25L89.88 9.25Q89.92 9.35 89.92 9.46L89.92 9.46L89.92 9.46Q89.24 9.72 88.26 9.74L88.26 9.74L88.26 9.74Q87.91 10.42 87.63 11.08L87.63 11.08L87.63 11.08Q87.36 11.75 87.17 12.36L87.17 12.36L87.17 12.36Q86.98 12.98 86.88 13.52L86.88 13.52L86.88 13.52Q86.77 14.07 86.77 14.50L86.77 14.50L86.77 14.50Q86.77 15.12 87.23 15.19L87.23 15.19L87.23 15.19Q87.65 15.13 88.03 14.98L88.03 14.98L88.03 14.98Q88.41 14.83 88.70 14.59L88.70 14.59L88.70 14.59Q88.79 14.71 88.80 14.80L88.80 14.80L88.80 14.80Q88.72 14.92 88.52 15.09L88.52 15.09L88.52 15.09Q88.31 15.26 88.07 15.42L88.07 15.42L88.07 15.42Q87.84 15.58 87.61 15.69L87.61 15.69L87.61 15.69Q87.39 15.81 87.28 15.82L87.28 15.82L87.28 15.82Q86.93 15.81 86.58 15.67L86.58 15.67L86.58 15.67Q86.23 15.53 85.94 15.32L85.94 15.32L85.94 15.32Q85.65 15.11 85.47 14.85L85.47 14.85L85.47 14.85Q85.29 14.59 85.29 14.34L85.29 14.34L85.29 14.34Q85.29 14 85.38 13.49L85.38 13.49L85.38 13.49Q85.47 12.98 85.64 12.38L85.64 12.38L85.64 12.38Q85.81 11.77 86.03 11.12L86.03 11.12L86.03 11.12Q86.25 10.46 86.52 9.81L86.52 9.81ZM101.84 9.38L101.84 9.38L101.84 9.38Q101.78 10.25 101.53 10.87L101.53 10.87L101.53 10.87Q101.28 11.49 100.81 11.96L100.81 11.96L100.81 11.96Q100.34 12.43 99.67 12.81L99.67 12.81L99.67 12.81Q98.99 13.19 98.10 13.54L98.10 13.54L98.10 13.54Q98.10 13.62 98.09 13.71L98.09 13.71L98.09 13.71Q98.08 13.80 98.08 13.90L98.08 13.90L98.08 13.90Q98.08 14.08 98.11 14.28L98.11 14.28L98.11 14.28Q98.14 14.48 98.21 14.64L98.21 14.64L98.21 14.64Q98.28 14.81 98.41 14.92L98.41 14.92L98.41 14.92Q98.53 15.02 98.73 15.02L98.73 15.02L98.73 15.02Q99.11 15.02 99.47 14.85L99.47 14.85L99.47 14.85Q99.83 14.69 100.16 14.44L100.16 14.44L100.16 14.44Q100.49 14.20 100.78 13.91L100.78 13.91L100.78 13.91Q101.07 13.62 101.29 13.38L101.29 13.38L101.29 13.38Q101.43 13.51 101.53 13.62L101.53 13.62L101.53 13.62Q100.90 14.46 100.15 15.02L100.15 15.02L100.15 15.02Q99.40 15.57 98.73 15.72L98.73 15.72L98.73 15.72Q97.76 15.61 97.22 15.02L97.22 15.02L97.22 15.02Q96.68 14.42 96.68 13.58L96.68 13.58L96.68 13.58Q96.68 13.01 96.84 12.41L96.84 12.41L96.84 12.41Q97.01 11.82 97.29 11.26L97.29 11.26L97.29 11.26Q97.58 10.71 97.96 10.22L97.96 10.22L97.96 10.22Q98.35 9.73 98.79 9.37L98.79 9.37L98.79 9.37Q99.23 9.00 99.70 8.79L99.70 8.79L99.70 8.79Q100.17 8.58 100.63 8.58L100.63 8.58L100.63 8.58Q101.28 8.67 101.84 9.38ZM100.87 9.84L100.87 9.84L100.87 9.84Q100.49 9.90 100.09 10.15L100.09 10.15L100.09 10.15Q99.68 10.40 99.32 10.82L99.32 10.82L99.32 10.82Q98.97 11.24 98.67 11.80L98.67 11.80L98.67 11.80Q98.38 12.36 98.21 13.01L98.21 13.01L98.21 13.01Q99.33 12.45 100.07 11.63L100.07 11.63L100.07 11.63Q100.81 10.81 100.87 9.84ZM124.64 9.52L124.64 9.52L124.64 9.52Q124.78 9.52 124.97 9.57L124.97 9.57L124.97 9.57Q125.16 9.62 125.31 9.70L125.31 9.70L125.31 9.70Q125.47 9.77 125.57 9.86L125.57 9.86L125.57 9.86Q125.68 9.94 125.68 10.01L125.68 10.01L125.68 10.01Q125.40 10.60 125.16 11.19L125.16 11.19L125.16 11.19Q124.92 11.79 124.75 12.33L124.75 12.33L124.75 12.33Q124.59 12.88 124.49 13.36L124.49 13.36L124.49 13.36Q124.40 13.83 124.40 14.18L124.40 14.18L124.40 14.18Q124.40 14.57 124.49 14.83L124.49 14.83L124.49 14.83Q124.57 15.09 124.77 15.20L124.77 15.20L124.77 15.20Q124.60 15.32 124.33 15.39L124.33 15.39L124.33 15.39Q124.07 15.46 123.86 15.46L123.86 15.46L123.86 15.46Q123.10 15.46 123.10 14.42L123.10 14.42L123.10 14.42Q123.10 13.62 123.63 12.24L123.63 12.24L123.63 12.24Q123.35 12.88 122.99 13.45L122.99 13.45L122.99 13.45Q122.63 14.01 122.25 14.45L122.25 14.45L122.25 14.45Q121.87 14.88 121.48 15.15L121.48 15.15L121.48 15.15Q121.10 15.43 120.78 15.48L120.78 15.48L120.78 15.48Q120.26 15.46 119.94 14.99L119.94 14.99L119.94 14.99Q119.62 14.52 119.62 13.79L119.62 13.79L119.62 13.79Q119.62 13.01 119.95 12.14L119.95 12.14L119.95 12.14Q120.29 11.27 120.81 10.53L120.81 10.53L120.81 10.53Q121.34 9.79 121.95 9.29L121.95 9.29L121.95 9.29Q122.57 8.79 123.14 8.76L123.14 8.76L123.14 8.76Q123.28 8.81 123.46 8.93L123.46 8.93L123.46 8.93Q123.63 9.06 123.79 9.23L123.79 9.23L123.79 9.23Q123.96 9.39 124.07 9.57L124.07 9.57L124.07 9.57Q124.18 9.74 124.19 9.87L124.19 9.87L124.19 9.87Q123.63 9.95 123.04 10.42L123.04 10.42L123.04 10.42Q122.44 10.88 121.96 11.53L121.96 11.53L121.96 11.53Q121.48 12.18 121.17 12.92L121.17 12.92L121.17 12.92Q120.86 13.66 120.86 14.31L120.86 14.31L120.86 14.31Q120.86 14.57 121.06 14.64L121.06 14.64L121.06 14.64Q121.46 14.56 122.00 13.95L122.00 13.95L122.00 13.95Q122.53 13.34 123.28 12.07L123.28 12.07L123.28 12.07Q123.42 11.82 123.60 11.51L123.60 11.51L123.60 11.51Q123.77 11.20 123.96 10.86L123.96 10.86L123.96 10.86Q124.14 10.53 124.31 10.18L124.31 10.18L124.31 10.18Q124.49 9.84 124.64 9.52ZM135.66 8.39L135.66 8.39L135.66 8.39Q136.02 8.50 136.35 8.88L136.35 8.88L136.35 8.88Q136.67 9.27 136.82 9.73L136.82 9.73L136.82 9.73Q136.67 10.11 136.35 10.64L136.35 10.64L136.35 10.64Q136.02 11.17 135.70 11.72L135.70 11.72L135.70 11.72Q135.38 12.28 135.12 12.78L135.12 12.78L135.12 12.78Q134.86 13.27 134.82 13.59L134.82 13.59L134.82 13.59Q135.04 13.36 135.32 13.04L135.32 13.04L135.32 13.04Q135.59 12.73 135.85 12.41L135.85 12.41L135.85 12.41Q136.11 12.10 136.33 11.84L136.33 11.84L136.33 11.84Q136.56 11.58 136.68 11.45L136.68 11.45L136.68 11.45Q136.95 11.17 137.31 10.80L137.31 10.80L137.31 10.80Q137.68 10.43 138.07 10.10L138.07 10.10L138.07 10.10Q138.47 9.77 138.88 9.54L138.88 9.54L138.88 9.54Q139.29 9.31 139.62 9.31L139.62 9.31L139.62 9.31Q139.99 9.31 140.23 9.55L140.23 9.55L140.23 9.55Q140.48 9.80 140.62 10.07L140.62 10.07L140.62 10.07Q140.62 10.09 140.51 10.14L140.51 10.14L140.51 10.14Q140.41 10.19 140.21 10.42L140.21 10.42L140.21 10.42Q140.01 10.67 139.77 11.11L139.77 11.11L139.77 11.11Q139.52 11.55 139.29 12.06L139.29 12.06L139.29 12.06Q139.06 12.57 138.91 13.10L138.91 13.10L138.91 13.10Q138.75 13.64 138.75 14.07L138.75 14.07L138.75 14.07Q138.75 14.42 138.84 14.52L138.84 14.52L138.84 14.52Q138.94 14.62 139.10 14.62L139.10 14.62L139.10 14.62Q139.26 14.62 139.43 14.55L139.43 14.55L139.43 14.55Q139.59 14.48 139.69 14.48L139.69 14.48L139.69 14.48Q139.75 14.50 139.78 14.60L139.78 14.60L139.78 14.60Q139.82 14.69 139.82 14.76L139.82 14.76L139.82 14.76Q139.71 14.85 139.55 14.95L139.55 14.95L139.55 14.95Q139.40 15.05 139.23 15.13L139.23 15.13L139.23 15.13Q139.06 15.22 138.90 15.27L138.90 15.27L138.90 15.27Q138.74 15.33 138.61 15.33L138.61 15.33L138.61 15.33Q138.21 15.33 137.95 15.21L137.95 15.21L137.95 15.21Q137.69 15.09 137.54 14.90L137.54 14.90L137.54 14.90Q137.40 14.70 137.34 14.43L137.34 14.43L137.34 14.43Q137.28 14.15 137.28 13.85L137.28 13.85L137.28 13.85Q137.28 13.68 137.31 13.47L137.31 13.47L137.31 13.47Q137.34 13.26 137.42 12.97L137.42 12.97L137.42 12.97Q137.51 12.68 137.66 12.29L137.66 12.29L137.66 12.29Q137.82 11.89 138.05 11.33L138.05 11.33L138.05 11.33Q138.03 11.33 137.68 11.52L137.68 11.52L137.68 11.52Q137.33 11.72 136.92 12.12L136.92 12.12L136.92 12.12Q136.26 12.75 135.74 13.37L135.74 13.37L135.74 13.37Q135.21 13.99 134.67 14.74L134.67 14.74L134.67 14.74Q134.36 15.18 134.13 15.48L134.13 15.48L134.13 15.48Q133.90 15.78 133.73 15.88L133.73 15.88L133.73 15.88Q133.43 15.71 133.29 15.41L133.29 15.41L133.29 15.41Q133.15 15.11 133.08 14.78L133.08 14.78L133.08 14.78Q133.08 14.52 133.16 14.11L133.16 14.11L133.16 14.11Q133.24 13.71 133.37 13.21L133.37 13.21L133.37 13.21Q133.50 12.71 133.70 12.17L133.70 12.17L133.70 12.17Q133.90 11.62 134.13 11.07L134.13 11.07L134.13 11.07Q134.67 9.84 135.11 9.14L135.11 9.14L135.11 9.14Q135.55 8.44 135.66 8.39ZM153.22 13.01L153.22 13.01L153.22 13.01Q152.89 14.03 152.57 14.87L152.57 14.87L152.57 14.87Q152.25 15.71 151.89 16.41L151.89 16.41L151.89 16.41Q151.52 17.12 151.10 17.72L151.10 17.72L151.10 17.72Q150.68 18.31 150.18 18.84L150.18 18.84L150.18 18.84Q149.53 19.52 148.85 19.87L148.85 19.87L148.85 19.87Q148.16 20.23 147.48 20.23L147.48 20.23L147.48 20.23Q147.13 20.23 146.78 20.15L146.78 20.15L146.78 20.15Q146.44 20.08 146.14 19.94L146.14 19.94L146.14 19.94Q145.84 19.81 145.61 19.64L145.61 19.64L145.61 19.64Q145.38 19.46 145.28 19.26L145.28 19.26L145.28 19.26Q145.28 19.10 145.47 18.97L145.47 18.97L145.47 18.97Q145.64 19.12 145.75 19.21L145.75 19.21L145.75 19.21Q145.87 19.29 145.97 19.35L145.97 19.35L145.97 19.35Q146.08 19.40 146.19 19.42L146.19 19.42L146.19 19.42Q146.31 19.43 146.47 19.43L146.47 19.43L146.47 19.43Q147.27 19.43 148.03 18.96L148.03 18.96L148.03 18.96Q148.79 18.49 149.47 17.63L149.47 17.63L149.47 17.63Q150.15 16.77 150.71 15.55L150.71 15.55L150.71 15.55Q151.27 14.32 151.66 12.81L151.66 12.81L151.66 12.81Q151.48 13.09 151.21 13.50L151.21 13.50L151.21 13.50Q150.95 13.90 150.63 14.30L150.63 14.30L150.63 14.30Q150.30 14.70 149.96 15.02L149.96 15.02L149.96 15.02Q149.62 15.34 149.30 15.46L149.30 15.46L149.30 15.46Q149.07 15.44 148.83 15.37L148.83 15.37L148.83 15.37Q148.58 15.29 148.36 15.15L148.36 15.15L148.36 15.15Q148.15 15.01 147.98 14.81L147.98 14.81L147.98 14.81Q147.81 14.62 147.76 14.36L147.76 14.36L147.76 14.36Q147.76 13.96 147.78 13.71L147.78 13.71L147.78 13.71Q147.81 13.47 147.88 13.17L147.88 13.17L147.88 13.17Q148.01 12.64 148.25 11.97L148.25 11.97L148.25 11.97Q148.50 11.30 148.83 10.65L148.83 10.65L148.83 10.65Q149.16 10.00 149.56 9.43L149.56 9.43L149.56 9.43Q149.95 8.86 150.39 8.54L150.39 8.54L150.39 8.54Q150.50 8.54 150.67 8.56L150.67 8.56L150.67 8.56Q150.84 8.58 151.02 8.64L151.02 8.64L151.02 8.64Q151.20 8.69 151.37 8.77L151.37 8.77L151.37 8.77Q151.54 8.85 151.66 8.97L151.66 8.97L151.66 8.97Q151.51 9.11 150.99 9.91L150.99 9.91L150.99 9.91Q150.47 10.71 149.84 12.21L149.84 12.21L149.84 12.21Q149.77 12.36 149.67 12.66L149.67 12.66L149.67 12.66Q149.58 12.95 149.48 13.27L149.48 13.27L149.48 13.27Q149.39 13.59 149.32 13.90L149.32 13.90L149.32 13.90Q149.25 14.21 149.25 14.39L149.25 14.39L149.25 14.39Q149.25 14.50 149.29 14.56L149.29 14.56L149.29 14.56Q149.32 14.62 149.35 14.64L149.35 14.64L149.35 14.64Q149.60 14.60 150.02 14.23L150.02 14.23L150.02 14.23Q150.44 13.86 150.98 13.08L150.98 13.08L150.98 13.08Q151.31 12.57 151.59 12.07L151.59 12.07L151.59 12.07Q151.87 11.58 152.14 11.07L152.14 11.07L152.14 11.07Q152.42 10.57 152.71 10.04L152.71 10.04L152.71 10.04Q153.01 9.51 153.34 8.95L153.34 8.95L153.34 8.95Q153.52 8.95 153.73 8.99L153.73 8.99L153.73 8.99Q153.94 9.03 154.14 9.09L154.14 9.09L154.14 9.09Q154.34 9.16 154.48 9.23L154.48 9.23L154.48 9.23Q154.63 9.31 154.70 9.39L154.70 9.39L154.70 9.39Q154.27 10.32 153.89 11.20L153.89 11.20L153.89 11.20Q153.51 12.08 153.22 13.01ZM163.42 9.81L162.62 9.81L162.62 9.81Q162.55 9.73 162.50 9.46L162.50 9.46L162.50 9.46Q162.44 9.18 162.44 8.99L162.44 8.99L162.44 8.99Q162.81 9.02 163.14 9.04L163.14 9.04L163.14 9.04Q163.48 9.06 163.76 9.07L163.76 9.07L163.76 9.07Q163.97 8.65 164.21 8.24L164.21 8.24L164.21 8.24Q164.46 7.83 164.69 7.48L164.69 7.48L164.69 7.48Q164.92 7.14 165.12 6.90L165.12 6.90L165.12 6.90Q165.33 6.66 165.44 6.59L165.44 6.59L165.44 6.59Q165.58 6.59 165.79 6.64L165.79 6.64L165.79 6.64Q166.01 6.69 166.24 6.77L166.24 6.77L166.24 6.77Q166.46 6.85 166.64 6.93L166.64 6.93L166.64 6.93Q166.82 7.01 166.89 7.10L166.89 7.10L166.89 7.10Q166.47 7.63 166.17 8.09L166.17 8.09L166.17 8.09Q165.87 8.54 165.52 9.13L165.52 9.13L165.52 9.13Q165.80 9.13 166.09 9.11L166.09 9.11L166.09 9.11Q166.38 9.10 166.67 9.07L166.67 9.07L166.67 9.07Q166.74 9.14 166.78 9.25L166.78 9.25L166.78 9.25Q166.82 9.35 166.82 9.46L166.82 9.46L166.82 9.46Q166.14 9.72 165.16 9.74L165.16 9.74L165.16 9.74Q164.81 10.42 164.53 11.08L164.53 11.08L164.53 11.08Q164.26 11.75 164.07 12.36L164.07 12.36L164.07 12.36Q163.88 12.98 163.78 13.52L163.78 13.52L163.78 13.52Q163.67 14.07 163.67 14.50L163.67 14.50L163.67 14.50Q163.67 15.12 164.14 15.19L164.14 15.19L164.14 15.19Q164.56 15.13 164.93 14.98L164.93 14.98L164.93 14.98Q165.31 14.83 165.61 14.59L165.61 14.59L165.61 14.59Q165.69 14.71 165.70 14.80L165.70 14.80L165.70 14.80Q165.62 14.92 165.42 15.09L165.42 15.09L165.42 15.09Q165.21 15.26 164.98 15.42L164.98 15.42L164.98 15.42Q164.74 15.58 164.51 15.69L164.51 15.69L164.51 15.69Q164.29 15.81 164.18 15.82L164.18 15.82L164.18 15.82Q163.83 15.81 163.48 15.67L163.48 15.67L163.48 15.67Q163.13 15.53 162.84 15.32L162.84 15.32L162.84 15.32Q162.55 15.11 162.37 14.85L162.37 14.85L162.37 14.85Q162.19 14.59 162.19 14.34L162.19 14.34L162.19 14.34Q162.19 14 162.28 13.49L162.28 13.49L162.28 13.49Q162.37 12.98 162.54 12.38L162.54 12.38L162.54 12.38Q162.71 11.77 162.93 11.12L162.93 11.12L162.93 11.12Q163.16 10.46 163.42 9.81L163.42 9.81ZM173.71 14.94L173.71 14.94L173.71 14.94Q173.71 14.45 173.81 13.78L173.81 13.78L173.81 13.78Q173.91 13.12 174.10 12.36L174.10 12.36L174.10 12.36Q174.29 11.61 174.54 10.78L174.54 10.78L174.54 10.78Q174.80 9.95 175.13 9.13L175.13 9.13L175.13 9.13Q175.41 8.39 175.78 7.63L175.78 7.63L175.78 7.63Q176.15 6.87 176.58 6.15L176.58 6.15L176.58 6.15Q177.02 5.42 177.48 4.76L177.48 4.76L177.48 4.76Q177.95 4.10 178.43 3.56L178.43 3.56L178.43 3.56Q178.65 3.56 178.91 3.61L178.91 3.61L178.91 3.61Q179.17 3.67 179.42 3.76L179.42 3.76L179.42 3.76Q179.66 3.85 179.87 3.98L179.87 3.98L179.87 3.98Q180.07 4.10 180.19 4.23L180.19 4.23L180.19 4.23Q179.14 5.31 178.30 6.40L178.30 6.40L178.30 6.40Q177.46 7.50 176.97 8.47L176.97 8.47L176.97 8.47Q176.71 9.00 176.49 9.46L176.49 9.46L176.49 9.46Q176.27 9.93 176.09 10.38L176.09 10.38L176.09 10.38Q175.91 10.84 175.76 11.29L175.76 11.29L175.76 11.29Q175.62 11.75 175.49 12.25L175.49 12.25L175.49 12.25Q178.18 8.82 179.48 8.82L179.48 8.82L179.48 8.82Q179.84 8.82 180.26 9.06L180.26 9.06L180.26 9.06Q180.68 9.30 181.01 9.70L181.01 9.70L181.01 9.70Q180.57 10.18 180.11 10.85L180.11 10.85L180.11 10.85Q179.65 11.52 179.26 12.20L179.26 12.20L179.26 12.20Q178.88 12.88 178.63 13.46L178.63 13.46L178.63 13.46Q178.39 14.04 178.39 14.32L178.39 14.32L178.39 14.32Q178.39 14.46 178.43 14.51L178.43 14.51L178.43 14.51Q178.47 14.56 178.61 14.56L178.61 14.56L178.61 14.56Q178.82 14.56 178.95 14.50L178.95 14.50L178.95 14.50Q179.07 14.45 179.10 14.45L179.10 14.45L179.10 14.45Q179.17 14.56 179.19 14.60L179.19 14.60L179.19 14.60Q179.20 14.64 179.20 14.67L179.20 14.67L179.20 14.67Q179.20 14.73 179.03 14.83L179.03 14.83L179.03 14.83Q178.86 14.94 178.63 15.04L178.63 15.04L178.63 15.04Q178.40 15.15 178.18 15.23L178.18 15.23L178.18 15.23Q177.95 15.32 177.84 15.32L177.84 15.32L177.84 15.32Q177.70 15.32 177.56 15.24L177.56 15.24L177.56 15.24Q177.42 15.16 177.32 15.04L177.32 15.04L177.32 15.04Q177.21 14.91 177.15 14.76L177.15 14.76L177.15 14.76Q177.09 14.60 177.09 14.43L177.09 14.43L177.09 14.43Q177.09 14.22 177.20 13.81L177.20 13.81L177.20 13.81Q177.32 13.40 177.53 12.85L177.53 12.85L177.53 12.85Q177.74 12.29 178.04 11.63L178.04 11.63L178.04 11.63Q178.33 10.98 178.67 10.29L178.67 10.29L178.67 10.29Q178.67 10.23 178.61 10.23L178.61 10.23L178.61 10.23Q178.57 10.23 178.39 10.35L178.39 10.35L178.39 10.35Q178.22 10.46 178.07 10.57L178.07 10.57L178.07 10.57Q177.56 10.95 177.05 11.50L177.05 11.50L177.05 11.50Q176.54 12.05 176.06 12.71L176.06 12.71L176.06 12.71Q175.57 13.37 175.15 14.11L175.15 14.11L175.15 14.11Q174.72 14.84 174.41 15.58L174.41 15.58L174.41 15.58Q174.37 15.68 174.29 15.76L174.29 15.76L174.29 15.76Q174.20 15.85 174.15 15.85L174.15 15.85L174.15 15.85Q174.10 15.85 174.03 15.75L174.03 15.75L174.03 15.75Q173.95 15.65 173.89 15.51L173.89 15.51L173.89 15.51Q173.82 15.36 173.77 15.20L173.77 15.20L173.77 15.20Q173.71 15.05 173.71 14.94ZM187.98 14.24L187.98 14.24L187.98 14.24Q187.98 14.11 188.00 13.92L188.00 13.92L188.00 13.92Q188.02 13.73 188.08 13.42L188.08 13.42L188.08 13.42Q188.13 13.10 188.22 12.66L188.22 12.66L188.22 12.66Q188.31 12.21 188.45 11.58L188.45 11.58L188.45 11.58Q188.48 11.44 188.58 11.13L188.58 11.13L188.58 11.13Q188.68 10.82 188.84 10.48L188.84 10.48L188.84 10.48Q189 10.14 189.23 9.81L189.23 9.81L189.23 9.81Q189.46 9.49 189.78 9.34L189.78 9.34L189.78 9.34Q190.02 9.39 190.41 9.63L190.41 9.63L190.41 9.63Q190.81 9.86 191.09 10.26L191.09 10.26L191.09 10.26Q190.76 10.63 190.55 10.99L190.55 10.99L190.55 10.99Q190.33 11.35 190.16 11.75L190.16 11.75L190.16 11.75Q189.98 12.14 189.83 12.56L189.83 12.56L189.83 12.56Q189.69 12.98 189.50 13.44L189.50 13.44L189.50 13.44Q189.35 13.83 189.22 14.25L189.22 14.25L189.22 14.25Q189.10 14.66 189.08 14.97L189.08 14.97L189.08 14.97Q189.08 15.22 189.08 15.32L189.08 15.32L189.08 15.32Q189.07 15.43 189 15.43L189 15.43L189 15.43Q188.94 15.43 188.78 15.36L188.78 15.36L188.78 15.36Q188.61 15.29 188.43 15.14L188.43 15.14L188.43 15.14Q188.26 14.99 188.12 14.77L188.12 14.77L188.12 14.77Q187.98 14.55 187.98 14.24ZM190.65 8.16L190.65 8.16L190.65 8.16Q190.65 8.08 190.69 7.91L190.69 7.91L190.69 7.91Q190.62 7.84 190.57 7.70L190.57 7.70L190.57 7.70Q190.53 7.56 190.53 7.45L190.53 7.45L190.53 7.45Q190.53 7.32 190.56 7.11L190.56 7.11L190.56 7.11Q190.60 6.89 190.65 6.64L190.65 6.64L190.65 6.64Q190.71 6.38 190.79 6.11L190.79 6.11L190.79 6.11Q190.88 5.84 190.96 5.61L190.96 5.61L190.96 5.61Q191.13 5.61 191.37 5.71L191.37 5.71L191.37 5.71Q191.62 5.80 191.87 5.94L191.87 5.94L191.87 5.94Q192.12 6.09 192.33 6.27L192.33 6.27L192.33 6.27Q192.54 6.44 192.65 6.59L192.65 6.59L192.65 6.59Q192.50 6.75 192.25 7.02L192.25 7.02L192.25 7.02Q192.00 7.29 191.76 7.59L191.76 7.59L191.76 7.59Q191.52 7.90 191.32 8.16L191.32 8.16L191.32 8.16Q191.13 8.43 191.07 8.54L191.07 8.54L191.07 8.54Q190.90 8.51 190.78 8.39L190.78 8.39L190.78 8.39Q190.65 8.27 190.65 8.16ZM200.54 8.39L200.54 8.39L200.54 8.39Q200.90 8.50 201.22 8.88L201.22 8.88L201.22 8.88Q201.54 9.27 201.70 9.73L201.70 9.73L201.70 9.73Q201.54 10.11 201.22 10.64L201.22 10.64L201.22 10.64Q200.90 11.17 200.58 11.72L200.58 11.72L200.58 11.72Q200.26 12.28 200.00 12.78L200.00 12.78L200.00 12.78Q199.74 13.27 199.70 13.59L199.70 13.59L199.70 13.59Q199.92 13.36 200.19 13.04L200.19 13.04L200.19 13.04Q200.47 12.73 200.72 12.41L200.72 12.41L200.72 12.41Q200.98 12.10 201.21 11.84L201.21 11.84L201.21 11.84Q201.43 11.58 201.56 11.45L201.56 11.45L201.56 11.45Q201.82 11.17 202.19 10.80L202.19 10.80L202.19 10.80Q202.55 10.43 202.95 10.10L202.95 10.10L202.95 10.10Q203.35 9.77 203.76 9.54L203.76 9.54L203.76 9.54Q204.16 9.31 204.50 9.31L204.50 9.31L204.50 9.31Q204.86 9.31 205.11 9.55L205.11 9.55L205.11 9.55Q205.35 9.80 205.49 10.07L205.49 10.07L205.49 10.07Q205.49 10.09 205.39 10.14L205.39 10.14L205.39 10.14Q205.28 10.19 205.09 10.42L205.09 10.42L205.09 10.42Q204.89 10.67 204.65 11.11L204.65 11.11L204.65 11.11Q204.40 11.55 204.17 12.06L204.17 12.06L204.17 12.06Q203.94 12.57 203.78 13.10L203.78 13.10L203.78 13.10Q203.63 13.64 203.63 14.07L203.63 14.07L203.63 14.07Q203.63 14.42 203.72 14.52L203.72 14.52L203.72 14.52Q203.81 14.62 203.98 14.62L203.98 14.62L203.98 14.62Q204.13 14.62 204.30 14.55L204.30 14.55L204.30 14.55Q204.47 14.48 204.57 14.48L204.57 14.48L204.57 14.48Q204.62 14.50 204.66 14.60L204.66 14.60L204.66 14.60Q204.69 14.69 204.69 14.76L204.69 14.76L204.69 14.76Q204.58 14.85 204.43 14.95L204.43 14.95L204.43 14.95Q204.27 15.05 204.11 15.13L204.11 15.13L204.11 15.13Q203.94 15.22 203.78 15.27L203.78 15.27L203.78 15.27Q203.62 15.33 203.49 15.33L203.49 15.33L203.49 15.33Q203.08 15.33 202.82 15.21L202.82 15.21L202.82 15.21Q202.57 15.09 202.42 14.90L202.42 14.90L202.42 14.90Q202.27 14.70 202.22 14.43L202.22 14.43L202.22 14.43Q202.16 14.15 202.16 13.85L202.16 13.85L202.16 13.85Q202.16 13.68 202.19 13.47L202.19 13.47L202.19 13.47Q202.22 13.26 202.30 12.97L202.30 12.97L202.30 12.97Q202.38 12.68 202.54 12.29L202.54 12.29L202.54 12.29Q202.69 11.89 202.93 11.33L202.93 11.33L202.93 11.33Q202.90 11.33 202.55 11.52L202.55 11.52L202.55 11.52Q202.20 11.72 201.80 12.12L201.80 12.12L201.80 12.12Q201.14 12.75 200.61 13.37L200.61 13.37L200.61 13.37Q200.09 13.99 199.54 14.74L199.54 14.74L199.54 14.74Q199.23 15.18 199.00 15.48L199.00 15.48L199.00 15.48Q198.77 15.78 198.60 15.88L198.60 15.88L198.60 15.88Q198.31 15.71 198.17 15.41L198.17 15.41L198.17 15.41Q198.03 15.11 197.96 14.78L197.96 14.78L197.96 14.78Q197.96 14.52 198.04 14.11L198.04 14.11L198.04 14.11Q198.11 13.71 198.25 13.21L198.25 13.21L198.25 13.21Q198.38 12.71 198.58 12.17L198.58 12.17L198.58 12.17Q198.77 11.62 199.01 11.07L199.01 11.07L199.01 11.07Q199.54 9.84 199.98 9.14L199.98 9.14L199.98 9.14Q200.42 8.44 200.54 8.39ZM210 19.35L210 19.35L210 19.35Q210 19.26 210.06 19.19L210.06 19.19L210.06 19.19Q210.11 19.12 210.18 19.05L210.18 19.05L210.18 19.05Q210.35 19.21 210.47 19.29L210.47 19.29L210.47 19.29Q210.59 19.38 210.69 19.43L210.69 19.43L210.69 19.43Q210.80 19.49 210.91 19.50L210.91 19.50L210.91 19.50Q211.02 19.52 211.18 19.52L211.18 19.52L211.18 19.52Q211.90 19.52 212.56 19.13L212.56 19.13L212.56 19.13Q213.22 18.75 213.80 18.02L213.80 18.02L213.80 18.02Q214.38 17.29 214.86 16.24L214.86 16.24L214.86 16.24Q215.33 15.19 215.70 13.86L215.70 13.86L215.70 13.86Q215.53 14.03 215.28 14.23L215.28 14.23L215.28 14.23Q215.04 14.43 214.77 14.62L214.77 14.62L214.77 14.62Q214.51 14.80 214.25 14.95L214.25 14.95L214.25 14.95Q213.99 15.11 213.81 15.18L213.81 15.18L213.81 15.18Q213.57 15.13 213.37 14.97L213.37 14.97L213.37 14.97Q213.16 14.81 213.01 14.57L213.01 14.57L213.01 14.57Q212.86 14.34 212.77 14.04L212.77 14.04L212.77 14.04Q212.69 13.73 212.69 13.40L212.69 13.40L212.69 13.40Q212.69 12.85 212.89 12.28L212.89 12.28L212.89 12.28Q213.09 11.70 213.43 11.15L213.43 11.15L213.43 11.15Q213.77 10.60 214.22 10.11L214.22 10.11L214.22 10.11Q214.68 9.62 215.19 9.25L215.19 9.25L215.19 9.25Q215.70 8.89 216.22 8.67L216.22 8.67L216.22 8.67Q216.75 8.46 217.25 8.46L217.25 8.46L217.25 8.46Q217.74 8.46 217.99 8.66L217.99 8.66L217.99 8.66Q218.23 8.86 218.34 9.35L218.34 9.35L218.34 9.35Q218.19 9.27 217.95 9.27L217.95 9.27L217.95 9.27Q217.62 9.27 217.18 9.53L217.18 9.53L217.18 9.53Q216.73 9.80 216.28 10.23L216.28 10.23L216.28 10.23Q215.82 10.65 215.38 11.21L215.38 11.21L215.38 11.21Q214.93 11.76 214.59 12.33L214.59 12.33L214.59 12.33Q214.24 12.91 214.03 13.45L214.03 13.45L214.03 13.45Q213.81 14 213.81 14.43L213.81 14.43L213.81 14.43Q213.81 14.53 213.82 14.55L213.82 14.55L213.82 14.55Q213.84 14.57 213.86 14.57L213.86 14.57L213.86 14.57Q213.99 14.57 214.21 14.43L214.21 14.43L214.21 14.43Q214.42 14.29 214.70 14.08L214.70 14.08L214.70 14.08Q214.97 13.86 215.26 13.57L215.26 13.57L215.26 13.57Q215.56 13.29 215.82 12.99L215.82 12.99L215.82 12.99Q216.43 12.32 216.92 11.49L216.92 11.49L216.92 11.49Q217.42 10.65 217.71 9.87L217.71 9.87L217.71 9.87Q218.09 9.90 218.39 10.00L218.39 10.00L218.39 10.00Q218.68 10.09 218.79 10.21L218.79 10.21L218.79 10.21Q218.32 11.30 218.03 12.04L218.03 12.04L218.03 12.04Q217.74 12.78 217.53 13.36L217.53 13.36L217.53 13.36Q217.15 14.36 216.82 15.20L216.82 15.20L216.82 15.20Q216.50 16.03 216.15 16.74L216.15 16.74L216.15 16.74Q215.81 17.44 215.41 18.05L215.41 18.05L215.41 18.05Q215.01 18.66 214.51 19.22L214.51 19.22L214.51 19.22Q214.27 19.49 213.97 19.69L213.97 19.69L213.97 19.69Q213.67 19.89 213.35 20.03L213.35 20.03L213.35 20.03Q213.04 20.17 212.74 20.24L212.74 20.24L212.74 20.24Q212.44 20.31 212.18 20.31L212.18 20.31L212.18 20.31Q211.85 20.31 211.50 20.24L211.50 20.24L211.50 20.24Q211.15 20.16 210.85 20.03L210.85 20.03L210.85 20.03Q210.55 19.89 210.32 19.72L210.32 19.72L210.32 19.72Q210.10 19.54 210 19.35Z"></path></g></svg>