<svg data-v-fde0c5aa="" xmlns="http://www.w3.org/2000/svg" viewBox="0 0 300 300" class="icon"><!----><defs data-v-fde0c5aa=""><!----></defs><rect data-v-fde0c5aa="" fill="transparent" x="0" y="0" width="300px" height="300px" class="logo-background-square"></rect><!----><defs data-v-fde0c5aa=""><linearGradient data-v-fde0c5aa="" gradientTransform="rotate(25)" id="a37b2427-1243-4133-9308-8ed8670b5cd9" x1="0%" y1="0%" x2="100%" y2="0%"><stop data-v-fde0c5aa="" offset="0%" stop-color="#177775" stop-opacity="1"></stop><stop data-v-fde0c5aa="" offset="100%" stop-color="#28D2BF" stop-opacity="1"></stop></linearGradient></defs><g data-v-fde0c5aa="" id="ebb4f965-1e4e-41cd-9dbd-f9d64ea1e111" fill="url(#a37b2427-1243-4133-9308-8ed8670b5cd9)" stroke="none" transform="matrix(4.36430025100708,0,0,4.36430025100708,33.46582569369696,40.03055010319496)"><circle cx="23.588" cy="38.103" r="3.601"></circle><path d="M46.73 12.567V-.007l-9.669 8.956s-.649.558-1.813 1.108a5.103 5.103 0 0 1-1.384.388l-18.862.055c-1.388.013-2.069 1.051-2.389 1.993l10.071-.008c.279 0 .491.298.492.577a.508.508 0 0 1-.505.509l-10.264.009c-.008 0-.015-.005-.025-.007l-3.768.007a1.944 1.944 0 0 0-1.939 1.954c0 1.07.874 1.937 1.948 1.936l1.654-.001v21.448l-2.833 1.652a1.679 1.679 0 0 0 1.69 2.898l5.152-3.004 2.1 2.073c-.084.083-.172.164-.238.249-2.782 3.354-3.906 7.617-3.906 7.617h10.733s-.003-1.571-.37-3.42l5.729 1.482a1.676 1.676 0 0 0 1.816-.693l4.438-6.657a1.677 1.677 0 0 0-.465-2.326 1.673 1.673 0 0 0-2.307.445V27.989L46.73 12.567zM15.729 37.17a1.677 1.677 0 0 0-2.024-.255l-2.496 1.456V17.467l7.042-.003 2.71-1.666a.506.506 0 0 1 .528.864l-1.299.798h.014l-6.199 3.793a1.942 1.942 0 1 0 2.065 3.293l.777-.476v14.204l-1.118-1.104zm12.291 7.747l-6.005-1.554-.016-.002-4.219-4.168V23.498l5.38-3.301 7.304-.015c.465.034 1.244.213 1.303.98.065.84-.621 1.437-.621 1.437l.022-.004-2.953 3.004c-.756.767-1.153 2.44-.223 3.284a2.208 2.208 0 0 0 1.611.537c.456-.032.913-.174 1.281-.491v11.503h.125l-2.989 4.485z"></path></g><!----></svg>